<?xml version="1.0" encoding="UTF-8"?>
<svg version="1.1" xmlns="http://www.w3.org/2000/svg" width="377" height="232">
<path d="M0 0 C2 1 2 1 2.8515625 3.50390625 C3.56770833 6.3359375 4.28385417 9.16796875 5 12 C9.29 12 13.58 12 18 12 C18 12.99 18 13.98 18 15 C16.02921494 16.8960008 13.90960959 18.50764672 11.75 20.18359375 C9.53745318 22.05972096 9.53745318 22.05972096 10 26 C10.66 24.68 11.32 23.36 12 22 C13.65 22 15.3 22 17 22 C17.99 27.94 17.99 27.94 19 34 C19 30.04 19 26.08 19 22 C22.96 22 26.92 22 31 22 C31 21.34 31 20.68 31 20 C32.5390625 18.484375 32.5390625 18.484375 34.625 16.75 C37.35211939 14.46056644 39.81467229 12.15161948 42.1875 9.5 C45 7 45 7 47.359375 7.04296875 C50.81635883 8.29586969 52.54159628 10.15132961 55.0625 12.8125 C56.31740234 14.12154297 56.31740234 14.12154297 57.59765625 15.45703125 C59.08724648 17.03381701 60.53907458 18.64842034 61.92578125 20.31640625 C64.75986824 22.61676688 66.53519794 22.34550381 70.125 22.125 C73.3203125 21.9453125 73.3203125 21.9453125 76 22 C76.99 22.99 76.99 22.99 78 24 C77.875 26.5 77.875 26.5 77 29 C74.9375 30.3125 74.9375 30.3125 73 31 C74.2065625 31.804375 74.2065625 31.804375 75.4375 32.625 C78 35 78 35 78.875 37.5 C79.33333333 50.33333333 79.33333333 50.33333333 77 55 C76.30346817 54.84306168 75.60693634 54.68612335 74.88929749 54.52442932 C70.70812267 54.00457304 66.99857815 53.79121422 63.26874924 56.04710007 C58.54474291 59.74633503 54.49154196 64.18501018 50.37109375 68.52734375 C49.00817708 69.91775452 47.64240981 71.30537624 46.27394104 72.69032288 C42.69234026 76.32885544 39.14741255 80.00106878 35.61004639 83.68255615 C31.29650836 88.15969234 26.94408581 92.59896833 22.59394169 97.04049778 C19.21231673 100.49363031 15.83814816 103.95303862 12.48497009 107.43382263 C11.86852631 108.07016632 11.25208252 108.70651001 10.61695862 109.36213684 C9.46533676 110.55107286 8.31761819 111.74380693 7.17456055 112.940979 C4.80077621 115.38289001 3.28087492 116.90637503 0 118 C-7.10518488 113.6367758 -12.8637007 106.10441687 -18.63426781 100.10467911 C-22.23518758 96.37161062 -25.86961832 92.67106545 -29.4968214 88.96356392 C-32.66655454 85.71987123 -35.82454872 82.46612353 -38.96020508 79.18945312 C-42.0163897 75.99716586 -45.10160603 72.83564566 -48.20809364 69.69231796 C-49.37782508 68.49808125 -50.5368708 67.29327143 -51.6842556 66.07754898 C-59.50461859 57.78969274 -59.50461859 57.78969274 -70.3137207 54.75732422 C-72.21070641 54.78242616 -74.10941254 54.84231704 -76 55 C-76 53.35 -76 51.7 -76 50 C-75.34 50 -74.68 50 -74 50 C-75.12697043 45.03088634 -75.12697043 45.03088634 -78 41 C-77.67028521 37.70285207 -77.3773161 36.3773161 -75 34 C-74.59952556 31.67724823 -74.2602896 29.34260643 -74 27 C-74.66 27 -75.32 27 -76 27 C-76 25.35 -76 23.7 -76 22 C-74.58847656 22.01353516 -74.58847656 22.01353516 -73.1484375 22.02734375 C-66.18264796 22.10768806 -66.18264796 22.10768806 -59.9453125 19.55078125 C-58.47439157 17.77261649 -58.47439157 17.77261649 -57.23046875 15.84375 C-55.93866871 13.90810042 -54.62763827 12.6915626 -52.8125 11.25 C-50.7186759 9.57494072 -48.83684014 7.93888681 -47 6 C-41.82343725 8.72651371 -38.32197496 12.58275079 -34.37304688 16.79296875 C-31.65080665 19.61577581 -29.8607114 21.28733284 -26 22 C-25.505 23.98 -25.505 23.98 -25 26 C-24.67 24.68 -24.34 23.36 -24 22 C-21.36 22 -18.72 22 -16 22 C-16 23.65 -16 25.3 -16 27 C-16.66 27 -17.32 27 -18 27 C-17.56268919 32.68504055 -17.26826873 33.73173127 -13 38 C-13 32.72 -13 27.44 -13 22 C-11.68 21.67 -10.36 21.34 -9 21 C-11.97 18.69 -14.94 16.38 -18 14 C-17.67 13.34 -17.34 12.68 -17 12 C-12.71 12 -8.42 12 -4 12 C-3.525625 10.205625 -3.05125 8.41125 -2.5625 6.5625 C-1.125 1.125 -1.125 1.125 0 0 Z M70 27 C70.33 27.99 70.66 28.98 71 30 C71.33 29.01 71.66 28.02 72 27 C71.34 27 70.68 27 70 27 Z M-1 28 C-3.33391203 30.78114056 -3.33391203 30.78114056 -2.625 33.6875 C-2.315625 34.8321875 -2.315625 34.8321875 -2 36 C-3.65 36 -5.3 36 -7 36 C-7.64456313 42.48149013 -7.64456313 42.48149013 -4.625 48.0625 C-2.2755746 50.19795077 -2.2755746 50.19795077 0 50 C0.33 50.66 0.66 51.32 1 52 C3.09564328 50.82111774 3.09564328 50.82111774 5 49 C5.36832876 46.77069698 5.36832876 46.77069698 4.953125 44.33203125 C4.85 43.43935547 4.746875 42.54667969 4.640625 41.62695312 C4.51171875 40.69818359 4.3828125 39.76941406 4.25 38.8125 C4.07984375 37.40194336 4.07984375 37.40194336 3.90625 35.96289062 C3.62312024 33.6388672 3.32040393 31.31912923 3 29 C1.68 28.67 0.36 28.34 -1 28 Z M-46 30 C-47.3494457 35.74568676 -47.43447303 41.25435396 -46 47 C-43.99678908 49.59888994 -41.80928125 51.32763414 -39 53 C-38.76232617 45.86978521 -39.24527661 38.94307217 -41 32 C-41.66 31.34 -42.32 30.68 -43 30 C-43.99 30 -44.98 30 -46 30 Z M40 34 C40 34.66 40 35.32 40 36 C38.02 36.99 38.02 36.99 36 38 C36 41.96 36 45.92 36 50 C39.35458155 50.76522801 39.35458155 50.76522801 43 51 C45.12963483 49.48742178 45.89765547 48.59888054 46.34057617 46.00708008 C46.3170105 44.89949341 46.3170105 44.89949341 46.29296875 43.76953125 C46.28330078 42.96708984 46.27363281 42.16464844 46.26367188 41.33789062 C46.23853516 40.50451172 46.21339844 39.67113281 46.1875 38.8125 C46.17396484 37.96751953 46.16042969 37.12253906 46.14648438 36.25195312 C46.11115799 34.16769616 46.05735139 32.08376723 46 30 C43.68420495 30 41.63401785 32.57547162 40 34 Z M9 34 C9 35.65 9 37.3 9 39 C9.33 39 9.66 39 10 39 C10 37.35 10 35.7 10 34 C9.67 34 9.34 34 9 34 Z M-52 38 C-52 41 -52 41 -52 41 Z M-35 39 C-35 40.65 -35 42.3 -35 44 C-34.67 44 -34.34 44 -34 44 C-34 42.35 -34 40.7 -34 39 C-34.33 39 -34.66 39 -35 39 Z M51 40 C52 42 52 42 52 42 Z M-30 44 C-30 47.63 -30 51.26 -30 55 C-32.31 55 -34.62 55 -37 55 C-36.319375 55.680625 -35.63875 56.36125 -34.9375 57.0625 C-34.25107422 57.75085938 -34.25107422 57.75085938 -33.55078125 58.453125 C-32.49083338 59.51040298 -31.42545767 60.56225995 -30.35546875 61.609375 C-26.63574398 65.27032308 -23.16616027 69.06859897 -19.7578125 73.01953125 C-16.97636841 76.15329159 -13.99379577 79.07097385 -11 82 C-7.66666667 85.33333333 -4.33333333 88.66666667 -1 92 C3.84628442 90.55323909 6.80513642 87.60009541 10.25390625 84.07421875 C10.83663803 83.4896138 11.41936981 82.90500885 12.01976013 82.3026886 C13.24774035 81.06800334 14.47212612 79.82973401 15.69311523 78.58813477 C17.55270447 76.69745928 19.42268419 74.81759615 21.29492188 72.93945312 C22.49020708 71.73499368 23.68488874 70.52993492 24.87890625 69.32421875 C25.43316788 68.76570724 25.9874295 68.20719574 26.55848694 67.63175964 C29.5798185 64.5550446 32.32902726 61.39209564 35 58 C35.99 57.01 36.98 56.02 38 55 C35.03 55 32.06 55 29 55 C29.33 52.03 29.66 49.06 30 46 C26.90412546 47.64677204 26.90412546 47.64677204 24 50 C23.49758678 52.6704053 23.49758678 52.6704053 24 55 C23.25886963 54.92257568 22.51773926 54.84515137 21.75415039 54.76538086 C18.18502321 55.06942582 17.32888442 56.14827172 14.93359375 58.75390625 C14.20076172 59.52541016 13.46792969 60.29691406 12.71289062 61.09179688 C11.58657227 62.31479492 11.58657227 62.31479492 10.4375 63.5625 C8.94813686 65.17905043 7.44732644 66.78515245 5.93359375 68.37890625 C5.27415771 69.0963501 4.61472168 69.81379395 3.93530273 70.55297852 C2 72 2 72 -0.01586914 71.95117188 C-2.45772766 70.78057008 -3.84715035 69.39649009 -5.6796875 67.40234375 C-6.36160156 66.68369141 -7.04351562 65.96503906 -7.74609375 65.22460938 C-9.16369747 63.70166079 -10.57519315 62.17300339 -11.98046875 60.63867188 C-15.99342606 56.22458368 -15.99342606 56.22458368 -21.5078125 54.50390625 C-22.74144531 54.74947266 -22.74144531 54.74947266 -24 55 C-23.87625 54.113125 -23.7525 53.22625 -23.625 52.3125 C-24.04028076 48.64418661 -24.30900395 48.32959535 -27 46.125 C-27.99 45.42375 -28.98 44.7225 -30 44 Z M71 48 C70.67 48.66 70.34 49.32 70 50 C70.66 50 71.32 50 72 50 C71.67 49.34 71.34 48.68 71 48 Z " fill="#80C1E5" transform="translate(189,87)"/>
<path d="M0 0 C4.2219494 2.27691969 7.47276085 5.16925368 10.8125 8.5625 C11.31458984 9.05685547 11.81667969 9.55121094 12.33398438 10.06054688 C16 13.74651361 16 13.74651361 16 16 C15.01 16 14.02 16 13 16 C13.24556641 16.79664063 13.24556641 16.79664063 13.49609375 17.609375 C14.11356377 20.53876764 14.09501925 23.25822936 14.0625 26.25 C14.05347656 27.32765625 14.04445312 28.4053125 14.03515625 29.515625 C14.02355469 30.33546875 14.01195312 31.1553125 14 32 C13.01 32 12.02 32 11 32 C10.97274659 30.2709226 10.95349013 28.54171824 10.9375 26.8125 C10.92589844 25.84957031 10.91429687 24.88664062 10.90234375 23.89453125 C10.99513378 21.14423487 11.37888315 18.67520409 12 16 C9.36 16 6.72 16 4 16 C4 17.65 4 19.3 4 21 C4.66 21 5.32 21 6 21 C6 22.32 6 23.64 6 25 C4.35 24.67 2.7 24.34 1 24 C1.00604143 26.71260034 1.05365708 29.41396891 1.125 32.125 C1.12242187 32.88554688 1.11984375 33.64609375 1.1171875 34.4296875 C1.27101884 38.89079646 1.78461608 41.26727275 5.0546875 44.4296875 C6.02664062 45.27789062 6.99859375 46.12609375 8 47 C8 47.66 8 48.32 8 49 C8.72445312 49.23460937 9.44890625 49.46921875 10.1953125 49.7109375 C13.48504568 51.22293186 15.35972591 53.02936571 17.875 55.625 C19.18791016 56.97464844 19.18791016 56.97464844 20.52734375 58.3515625 C22.55831909 60.52691997 24.51485211 62.72988563 26.4375 65 C30.08984323 69.2856474 34.26768096 72.91517505 38.46484375 76.65625 C41.29225556 79.27019004 43.66865061 81.94512839 46 85 C50.72972453 83.56325923 53.62621075 80.78092299 57 77.328125 C57.55816406 76.76808777 58.11632812 76.20805054 58.69140625 75.63104248 C59.86811274 74.44763146 61.04122483 73.26063685 62.2109375 72.0703125 C63.987145 70.26307955 65.77367448 68.46661074 67.5625 66.671875 C68.70895576 65.51624215 69.85480885 64.36001105 71 63.203125 C71.52722656 62.67164856 72.05445313 62.14017212 72.59765625 61.59259033 C75.08464378 59.05819659 77.44944674 56.49541305 79.6875 53.73730469 C82 51 82 51 85 49 C86.32 49 87.64 49 89 49 C89.0825 48.21625 89.165 47.4325 89.25 46.625 C90 44 90 44 92.0625 42.6875 C92.701875 42.460625 93.34125 42.23375 94 42 C94 42.99 94 43.98 94 45 C93.34 45 92.68 45 92 45 C92 46.32 92 47.64 92 49 C94.31 49 96.62 49 99 49 C98.67 45.7 98.34 42.4 98 39 C98.99 39 99.98 39 101 39 C101.74926071 42.66305234 102.2380014 45.42355152 101 49 C103.64 49 106.28 49 109 49 C108.56217643 53.40153984 105.59688261 55.81818562 102.60986328 58.76245117 C102.04882904 59.32713608 101.4877948 59.89182098 100.90975952 60.47361755 C99.0539349 62.33754594 97.18747297 64.19040122 95.3203125 66.04296875 C94.02804322 67.33471944 92.73629186 68.62698846 91.44503784 69.91975403 C88.73774612 72.62695604 86.02535938 75.32891412 83.30908203 78.02709961 C79.82454247 81.48894091 76.35119535 84.96175724 72.88136482 88.43833447 C70.21550729 91.10753039 67.54469247 93.77171929 64.8722496 96.43432045 C63.58947274 97.71324367 62.30804699 98.99352353 61.02798843 100.27516747 C59.2398484 102.06367759 57.44536163 103.84556022 55.64892578 105.62573242 C55.11893982 106.1581958 54.58895386 106.69065918 54.04290771 107.23925781 C51.69802036 109.55028928 50.17036997 110.94321001 47 112 C39.89481512 107.6367758 34.1362993 100.10441687 28.36573219 94.10467911 C24.76481242 90.37161062 21.13038168 86.67106545 17.5031786 82.96356392 C14.33344546 79.71987123 11.17545128 76.46612353 8.03979492 73.18945312 C4.9836103 69.99716586 1.89839397 66.83564566 -1.20809364 63.69231796 C-2.37782508 62.49808125 -3.5368708 61.29327143 -4.6842556 60.07754898 C-12.50461859 51.78969274 -12.50461859 51.78969274 -23.3137207 48.75732422 C-25.21070641 48.78242616 -27.10941254 48.84231704 -29 49 C-29 47.35 -29 45.7 -29 44 C-28.34 44 -27.68 44 -27 44 C-28.12697043 39.03088634 -28.12697043 39.03088634 -31 35 C-30.67028521 31.70285207 -30.3773161 30.3773161 -28 28 C-27.59952556 25.67724823 -27.2602896 23.34260643 -27 21 C-27.66 21 -28.32 21 -29 21 C-29 19.35 -29 17.7 -29 16 C-27.58847656 16.01353516 -27.58847656 16.01353516 -26.1484375 16.02734375 C-19.18264796 16.10768806 -19.18264796 16.10768806 -12.9453125 13.55078125 C-11.47439157 11.77261649 -11.47439157 11.77261649 -10.23046875 9.84375 C-8.93866871 7.90810042 -7.62763827 6.6915626 -5.8125 5.25 C-3.7186759 3.57494072 -1.83684014 1.93888681 0 0 Z M-5 32 C-5 35 -5 35 -5 35 Z " fill="#81C3E7" transform="translate(142,93)"/>
<path d="M0 0 C2 1 2 1 2.8515625 3.50390625 C3.56770833 6.3359375 4.28385417 9.16796875 5 12 C9.29 12 13.58 12 18 12 C18 15 18 15 16.56640625 16.82421875 C12.80297841 20.32354639 10.29112973 22.47104123 5 22.4375 C3.66328616 22.32685983 2.32724563 22.19355665 1 22 C1 23.32 1 24.64 1 26 C1.66 26 2.32 26 3 26 C3 26.66 3 27.32 3 28 C1.35 28.66 -0.3 29.32 -2 30 C-2 31.98 -2 33.96 -2 36 C-3.65 36 -5.3 36 -7 36 C-7.06414266 40.1234567 -7.11500632 43.67324969 -4.375 46.93359375 C-2.6365041 48.39519212 -0.88995235 49.74167663 1 51 C2.32 50.34 3.64 49.68 5 49 C5 50.98 5 52.96 5 55 C7.97 55 10.94 55 14 55 C13.505 53.02 13.505 53.02 13 51 C12.77872136 48.27261216 12.86680261 45.75274615 13 43 C13.66 42.34 14.32 41.68 15 41 C15 45.62 15 50.24 15 55 C15.99 55 16.98 55 18 55 C15.90308431 59.64080887 12.67171494 62.73327953 9.125 66.3125 C8.49980469 66.97056641 7.87460938 67.62863281 7.23046875 68.30664062 C6.62074219 68.92345703 6.01101562 69.54027344 5.3828125 70.17578125 C4.82996582 70.74208252 4.27711914 71.30838379 3.70751953 71.8918457 C2 73 2 73 0.01855469 72.89916992 C-2.47413882 71.78879375 -3.82431751 70.43717111 -5.6796875 68.4375 C-6.36160156 67.72335938 -7.04351562 67.00921875 -7.74609375 66.2734375 C-9.16171991 64.76170461 -10.57321051 63.24608809 -11.98046875 61.7265625 C-16.09340821 57.35236339 -16.09340821 57.35236339 -21.5078125 55 C-22.33023438 55 -23.15265625 55 -24 55 C-24.268125 53.906875 -24.53625 52.81375 -24.8125 51.6875 C-25.7601961 47.78348726 -25.7601961 47.78348726 -29 45 C-29.33 48.3 -29.66 51.6 -30 55 C-32.97 55 -35.94 55 -39 55 C-39.13277344 53.68644531 -39.26554688 52.37289062 -39.40234375 51.01953125 C-39.5806038 49.28384129 -39.75899617 47.54816491 -39.9375 45.8125 C-40.02451172 44.94818359 -40.11152344 44.08386719 -40.20117188 43.19335938 C-40.5555776 39.76743739 -40.91787602 36.41061989 -41.59375 33.03125 C-42.05826206 30.70868972 -41.74236628 29.22709884 -41 27 C-41.66 27 -42.32 27 -43 27 C-43 25.35 -43 23.7 -43 22 C-40.36 22 -37.72 22 -35 22 C-35 27.28 -35 32.56 -35 38 C-34.67 38 -34.34 38 -34 38 C-34 32.72 -34 27.44 -34 22 C-30.29847322 21.07461831 -29.36541838 20.91825838 -26 22 C-25.67 23.32 -25.34 24.64 -25 26 C-24.67 24.68 -24.34 23.36 -24 22 C-21.36 22 -18.72 22 -16 22 C-16 23.65 -16 25.3 -16 27 C-16.66 27 -17.32 27 -18 27 C-17.56268919 32.68504055 -17.26826873 33.73173127 -13 38 C-13 32.72 -13 27.44 -13 22 C-11.68 21.67 -10.36 21.34 -9 21 C-11.97 18.69 -14.94 16.38 -18 14 C-17.67 13.34 -17.34 12.68 -17 12 C-12.71 12 -8.42 12 -4 12 C-3.525625 10.205625 -3.05125 8.41125 -2.5625 6.5625 C-1.125 1.125 -1.125 1.125 0 0 Z " fill="#7FBFE2" transform="translate(189,87)"/>
<path d="M0 0 C0.99 0.33 1.98 0.66 3 1 C3 1.66 3 2.32 3 3 C4.32 3.66 5.64 4.32 7 5 C7 5.66 7 6.32 7 7 C7.81549316 7.32871094 7.81549316 7.32871094 8.64746094 7.6640625 C11.77667207 9.44104915 14.12685399 11.84104975 16.640625 14.375 C17.16767029 14.90013184 17.69471558 15.42526367 18.23773193 15.96630859 C19.34616928 17.07338883 20.45210046 18.1829833 21.55566406 19.29492188 C23.25106301 21.00106975 24.9569161 22.69624047 26.6640625 24.390625 C27.74022558 25.46810892 28.81576851 26.54621267 29.890625 27.625 C30.40304749 28.13337402 30.91546997 28.64174805 31.44342041 29.16552734 C35 32.77005909 35 32.77005909 35 35 C36.485 35.495 36.485 35.495 38 36 C37.51491868 40.54359502 35.93391433 42.65945738 32.75 45.875 C31.98171875 46.67679688 31.2134375 47.47859375 30.421875 48.3046875 C28 50 28 50 25.67993164 49.9128418 C22.10261434 48.69433133 20.33539967 46.78768973 17.69921875 44.08984375 C17.2179805 43.60294571 16.73674225 43.11604767 16.24092102 42.61439514 C14.71342979 41.06460092 13.20047252 39.50145808 11.6875 37.9375 C10.6513209 36.88124806 9.6142209 35.82589867 8.57617188 34.77148438 C6.04003105 32.1913578 3.51673541 29.5990748 1 27 C-2.96757175 30.2714147 -6.67265066 33.6209927 -10.2265625 37.33984375 C-10.9484375 38.09201172 -11.6703125 38.84417969 -12.4140625 39.61914062 C-13.9054263 41.18296468 -15.38702899 42.75614827 -16.859375 44.33789062 C-17.57867187 45.08103516 -18.29796875 45.82417969 -19.0390625 46.58984375 C-19.68053223 47.26909912 -20.32200195 47.94835449 -20.98291016 48.64819336 C-23 50 -23 50 -25.59179688 49.83129883 C-28.76055491 48.73746052 -30.50003288 47.10160679 -32.875 44.75 C-34.07769531 43.59757812 -34.07769531 43.59757812 -35.3046875 42.421875 C-37 40 -37 40 -36.80981445 37.53710938 C-35.88508417 34.63997429 -35.11056452 33.8220636 -32.73828125 31.984375 C-28.89835252 28.82197998 -25.36151877 25.47431723 -21.85546875 21.953125 C-21.31479767 21.4113562 -20.77412659 20.8695874 -20.21707153 20.31140137 C-18.53848522 18.62630543 -16.86292779 16.93823577 -15.1875 15.25 C-14.04515775 14.10262969 -12.90258123 12.95549259 -11.75976562 11.80859375 C-9.67457828 9.71530011 -7.59069517 7.6207286 -5.50854492 5.52441406 C-3.67548271 3.67975584 -1.84061008 1.83711599 0 0 Z " fill="#F9BB86" transform="translate(189,46)"/>
<path d="M0 0 C0.33 1.32 0.66 2.64 1 4 C1.33 2.68 1.66 1.36 2 0 C4.64 0 7.28 0 10 0 C10 1.65 10 3.3 10 5 C9.34 5 8.68 5 8 5 C8.495 19.355 8.495 19.355 9 34 C5.535 33.505 5.535 33.505 2 33 C1.731875 31.906875 1.46375 30.81375 1.1875 29.6875 C0.2398039 25.78348726 0.2398039 25.78348726 -3 23 C-3.33 26.3 -3.66 29.6 -4 33 C-6.97 33 -9.94 33 -13 33 C-13.13277344 31.68644531 -13.26554688 30.37289062 -13.40234375 29.01953125 C-13.5806038 27.28384129 -13.75899617 25.54816491 -13.9375 23.8125 C-14.02451172 22.94818359 -14.11152344 22.08386719 -14.20117188 21.19335938 C-14.5555776 17.76743739 -14.91787602 14.41061989 -15.59375 11.03125 C-16.05826206 8.70868972 -15.74236628 7.22709884 -15 5 C-15.66 5 -16.32 5 -17 5 C-17 3.35 -17 1.7 -17 0 C-14.36 0 -11.72 0 -9 0 C-9 5.28 -9 10.56 -9 16 C-8.67 16 -8.34 16 -8 16 C-8 10.72 -8 5.44 -8 0 C-4.71023192 -1.09658936 -3.28696233 -0.79953138 0 0 Z " fill="#0A0F12" transform="translate(163,109)"/>
<path d="M0 0 C2.64 0 5.28 0 8 0 C8.33 1.32 8.66 2.64 9 4 C9.66 2.68 10.32 1.36 11 0 C12.65 0 14.3 0 16 0 C16.66 3.96 17.32 7.92 18 12 C18 8.04 18 4.08 18 0 C20.97 0 23.94 0 27 0 C26.67 1.32 26.34 2.64 26 4 C25.34 4 24.68 4 24 4 C23.8320226 8.08328052 23.66584479 12.16663235 23.5 16.25 C23.45230469 17.40886719 23.40460938 18.56773438 23.35546875 19.76171875 C23.28779297 21.43427734 23.28779297 21.43427734 23.21875 23.140625 C23.17685547 24.16704102 23.13496094 25.19345703 23.09179688 26.25097656 C23.01670943 28.4996058 23 30.75011743 23 33 C17.375 34.125 17.375 34.125 14 33 C13.67 29.04 13.34 25.08 13 21 C13 24.96 13 28.92 13 33 C10.03 33 7.06 33 4 33 C3.46941969 28.54276958 2.95218347 24.08409176 2.4375 19.625 C2.28603516 18.35398437 2.13457031 17.08296875 1.97851562 15.7734375 C1.83994141 14.56171875 1.70136719 13.35 1.55859375 12.1015625 C1.42767334 10.98088379 1.29675293 9.86020508 1.16186523 8.70556641 C1 6 1 6 2 4 C1.34 4 0.68 4 0 4 C0 2.68 0 1.36 0 0 Z M8 12 C8 13.65 8 15.3 8 17 C8.33 17 8.66 17 9 17 C9 15.35 9 13.7 9 12 C8.67 12 8.34 12 8 12 Z " fill="#030506" transform="translate(190,109)"/>
<path d="M0 0 C5.61 0 11.22 0 17 0 C17.33 1.32 17.66 2.64 18 4 C17.67 4.33 17.34 4.66 17 5 C16.90057135 6.64863957 16.86919818 8.30149113 16.8671875 9.953125 C16.86589844 10.96503906 16.86460938 11.97695312 16.86328125 13.01953125 C16.86908203 14.61861328 16.86908203 14.61861328 16.875 16.25 C16.87113281 17.30058594 16.86726563 18.35117188 16.86328125 19.43359375 C16.86521484 20.95919922 16.86521484 20.95919922 16.8671875 22.515625 C16.86831543 23.44665039 16.86944336 24.37767578 16.87060547 25.33691406 C16.99926493 27.9848715 17.41162938 30.41864806 18 33 C15.03 33 12.06 33 9 33 C9.020625 31.906875 9.04125 30.81375 9.0625 29.6875 C9.18544452 26.05615809 9.18544452 26.05615809 8 23 C8 26.3 8 29.6 8 33 C5.36 33 2.72 33 0 33 C0 31.35 0 29.7 0 28 C0.66 28 1.32 28 2 28 C2 20.41 2 12.82 2 5 C1.34 5 0.68 5 0 5 C0 3.35 0 1.7 0 0 Z M8 5 C8.66 7.97 9.32 10.94 10 14 C10.33 14 10.66 14 11 14 C11 11.03 11 8.06 11 5 C10.01 5 9.02 5 8 5 Z " fill="#010101" transform="translate(76,109)"/>
<path d="M0 0 C2.64 0 5.28 0 8 0 C7.979375 1.093125 7.95875 2.18625 7.9375 3.3125 C7.81455548 6.94384191 7.81455548 6.94384191 9 10 C9 6.7 9 3.4 9 0 C11.64 0 14.28 0 17 0 C17 1.65 17 3.3 17 5 C16.34 5 15.68 5 15 5 C15 12.59 15 20.18 15 28 C15.66 28 16.32 28 17 28 C17 29.65 17 31.3 17 33 C11.39 33 5.78 33 0 33 C0 22.11 0 11.22 0 0 Z M6 18 C6 21.3 6 24.6 6 28 C6.99 28.33 7.98 28.66 9 29 C10.25973028 27.02767749 10.25973028 27.02767749 9.44140625 24.8359375 C9.15136719 24.02382812 8.86132812 23.21171875 8.5625 22.375 C8.27503906 21.55773437 7.98757813 20.74046875 7.69140625 19.8984375 C7.46324219 19.27195313 7.23507812 18.64546875 7 18 C6.67 18 6.34 18 6 18 Z " fill="#010101" transform="translate(281,109)"/>
<path d="M0 0 C3.96 0 7.92 0 12 0 C12 1.65 12 3.3 12 5 C10.02 5 8.04 5 6 5 C6 6.32 6 7.64 6 9 C6.804375 9.12375 7.60875 9.2475 8.4375 9.375 C9.283125 9.58125 10.12875 9.7875 11 10 C11.33 10.66 11.66 11.32 12 12 C11.35546875 12.53109375 10.7109375 13.0621875 10.046875 13.609375 C7.48217775 16.60478476 7.41926861 18.35682203 7.25 22.25 C7.19328125 23.32765625 7.1365625 24.4053125 7.078125 25.515625 C7.05234375 26.33546875 7.0265625 27.1553125 7 28 C8.98 28 10.96 28 13 28 C13 29.65 13 31.3 13 33 C8.71 33 4.42 33 0 33 C0 30.36 0 27.72 0 25 C-1.98 26.32 -3.96 27.64 -6 29 C-6.30221599 20.53795229 -5.14920797 12.36254017 -4 4 C-3.34 4 -2.68 4 -2 4 C-2 3.34 -2 2.68 -2 2 C-1.34 2 -0.68 2 0 2 C0 1.34 0 0.68 0 0 Z " fill="#080D0F" transform="translate(218,109)"/>
<path d="M0 0 C2.64 0 5.28 0 8 0 C7.95875 1.175625 7.9175 2.35125 7.875 3.5625 C7.86016365 7.72409674 8.68829222 11.06487667 10 15 C10.33 11.37 10.66 7.74 11 4 C10.34 4 9.68 4 9 4 C9 2.68 9 1.36 9 0 C11.64 0 14.28 0 17 0 C17 1.65 17 3.3 17 5 C16.34 5 15.68 5 15 5 C15.33 14.24 15.66 23.48 16 33 C13.69 33 11.38 33 9 33 C9 29.7 9 26.4 9 23 C8.01 23 7.02 23 6 23 C6.33 26.3 6.66 29.6 7 33 C4.69 33 2.38 33 0 33 C0 31.68 0 30.36 0 29 C0.66 29 1.32 29 2 29 C1.67 28.01 1.34 27.02 1 26 C0.85013589 24.0093556 0.75171962 22.01464609 0.68359375 20.01953125 C0.64169922 18.85615234 0.59980469 17.69277344 0.55664062 16.49414062 C0.51732422 15.27919922 0.47800781 14.06425781 0.4375 12.8125 C0.39431641 11.58595703 0.35113281 10.35941406 0.30664062 9.09570312 C0.2004691 6.06391619 0.09842048 3.03204685 0 0 Z M6 18 C7 20 7 20 7 20 Z " fill="#070A0C" transform="translate(234,109)"/>
<path d="M0 0 C0.89589844 -0.01417969 1.79179687 -0.02835937 2.71484375 -0.04296875 C5.0625 0.1875 5.0625 0.1875 7.0625 2.1875 C6.9375 4.6875 6.9375 4.6875 6.0625 7.1875 C4 8.5 4 8.5 2.0625 9.1875 C2.866875 9.72375 3.67125 10.26 4.5 10.8125 C7.0625 13.1875 7.0625 13.1875 7.9375 15.6875 C8.39583333 28.52083333 8.39583333 28.52083333 6.0625 33.1875 C4.25007948 33.21437279 2.43754767 33.23383715 0.625 33.25 C-0.38433594 33.26160156 -1.39367187 33.27320313 -2.43359375 33.28515625 C-4.9375 33.1875 -4.9375 33.1875 -5.9375 32.1875 C-6.0377093 29.90802208 -6.06831303 27.62542865 -6.0703125 25.34375 C-6.07126923 24.65945923 -6.07222595 23.97516846 -6.07321167 23.2701416 C-6.0738933 21.82088123 -6.07204023 20.37161782 -6.06787109 18.92236328 C-6.06252252 16.69687072 -6.0678166 14.47157999 -6.07421875 12.24609375 C-6.07355797 10.84114539 -6.0722768 9.43619715 -6.0703125 8.03125 C-6.06918457 6.74412109 -6.06805664 5.45699219 -6.06689453 4.13085938 C-5.85758387 -0.6303657 -4.32035941 0.03099254 0 0 Z M-0.9375 5.1875 C-0.6075 6.1775 -0.2775 7.1675 0.0625 8.1875 C0.3925 7.1975 0.7225 6.2075 1.0625 5.1875 C0.4025 5.1875 -0.2575 5.1875 -0.9375 5.1875 Z M0.0625 26.1875 C-0.2675 26.8475 -0.5975 27.5075 -0.9375 28.1875 C-0.2775 28.1875 0.3825 28.1875 1.0625 28.1875 C0.7325 27.5275 0.4025 26.8675 0.0625 26.1875 Z " fill="#030709" transform="translate(259.9375,108.8125)"/>
<path d="M0 0 C2 1 2 1 2.8515625 3.50390625 C3.56770833 6.3359375 4.28385417 9.16796875 5 12 C9.29 12 13.58 12 18 12 C18 15 18 15 16.56640625 16.82421875 C12.80297841 20.32354639 10.29112973 22.47104123 5 22.4375 C3.66328616 22.32685983 2.32724563 22.19355665 1 22 C1 23.32 1 24.64 1 26 C1.66 26 2.32 26 3 26 C3 26.66 3 27.32 3 28 C-0.3171411 29.4216319 -3.44219804 30.39009109 -7 31 C-7 29.68 -7 28.36 -7 27 C-5.02 27 -3.04 27 -1 27 C-1 25.35 -1 23.7 -1 22 C-2.423125 22.2475 -2.423125 22.2475 -3.875 22.5 C-9.75425268 22.5965791 -13.89464407 17.70060253 -18 14 C-17.67 13.34 -17.34 12.68 -17 12 C-12.71 12 -8.42 12 -4 12 C-3.525625 10.205625 -3.05125 8.41125 -2.5625 6.5625 C-1.125 1.125 -1.125 1.125 0 0 Z " fill="#F7B884" transform="translate(189,87)"/>
<path d="M0 0 C1.97909398 -0.02686553 3.95828971 -0.04633375 5.9375 -0.0625 C7.03964844 -0.07410156 8.14179688 -0.08570312 9.27734375 -0.09765625 C12 0 12 0 13 1 C14.46741582 11.53686081 14.50673919 22.37915018 15 33 C13.02 33 11.04 33 9 33 C8.67 27.72 8.34 22.44 8 17 C6.60843516 18.16277032 6.60843516 18.16277032 6.90234375 21.37890625 C6.90901631 22.77347077 6.92097468 24.16801743 6.9375 25.5625 C6.94201172 26.27341797 6.94652344 26.98433594 6.95117188 27.71679688 C6.96299136 29.47790013 6.98092737 31.23896036 7 33 C4.69 33 2.38 33 0 33 C0 31.68 0 30.36 0 29 C0.66 29 1.32 29 2 29 C2 20.75 2 12.5 2 4 C1.34 4 0.68 4 0 4 C0 2.68 0 1.36 0 0 Z " fill="#070A0C" transform="translate(129,109)"/>
<path d="M0 0 C5.05683329 1.30498924 7.76062971 3.2662361 11.375 7 C12.68597656 8.3303125 12.68597656 8.3303125 14.0234375 9.6875 C16 12 16 12 16 14 C15.01 14 14.02 14 13 14 C13.24556641 14.79664062 13.24556641 14.79664062 13.49609375 15.609375 C14.11356377 18.53876764 14.09501925 21.25822936 14.0625 24.25 C14.05347656 25.32765625 14.04445312 26.4053125 14.03515625 27.515625 C14.02355469 28.33546875 14.01195312 29.1553125 14 30 C13.01 30 12.02 30 11 30 C10.97274659 28.2709226 10.95349013 26.54171824 10.9375 24.8125 C10.92589844 23.84957031 10.91429687 22.88664062 10.90234375 21.89453125 C10.99513378 19.14423487 11.37888315 16.67520409 12 14 C9.36 14 6.72 14 4 14 C4 15.65 4 17.3 4 19 C4.66 19 5.32 19 6 19 C6 20.32 6 21.64 6 23 C4.02 22.67 2.04 22.34 0 22 C-0.33 19.69 -0.66 17.38 -1 15 C-4.96 14.67 -8.92 14.34 -13 14 C-8.88380164 9.08064098 -4.59589638 4.47352044 0 0 Z " fill="#80C2E6" transform="translate(142,95)"/>
<path d="M0 0 C4.29 0 8.58 0 13 0 C12.67 1.65 12.34 3.3 12 5 C11.01 5 10.02 5 9 5 C8.67 6.32 8.34 7.64 8 9 C8.99 9 9.98 9 11 9 C11 10.65 11 12.3 11 14 C9.35 14 7.7 14 6 14 C6.33 18.62 6.66 23.24 7 28 C8.98 28.33 10.96 28.66 13 29 C13 30.32 13 31.64 13 33 C8.71 33 4.42 33 0 33 C0 31.35 0 29.7 0 28 C0.66 28 1.32 28 2 28 C0.87302957 23.03088634 0.87302957 23.03088634 -2 19 C-1.67028521 15.70285207 -1.3773161 14.3773161 1 12 C1.40047444 9.67724823 1.7397104 7.34260643 2 5 C1.34 5 0.68 5 0 5 C0 3.35 0 1.7 0 0 Z " fill="#081016" transform="translate(113,109)"/>
<path d="M0 0 C5.61 0 11.22 0 17 0 C17 2.64 17 5.28 17 8 C15.35 8 13.7 8 12 8 C12 16.25 12 24.5 12 33 C9.36 33 6.72 33 4 33 C4 31.35 4 29.7 4 28 C4.66 28 5.32 28 6 28 C5.67 21.4 5.34 14.8 5 8 C3.35 8 1.7 8 0 8 C0 5.36 0 2.72 0 0 Z " fill="#020202" transform="translate(95,109)"/>
<path d="M0 0 C4.29 0 8.58 0 13 0 C13 1.65 13 3.3 13 5 C10.69 5 8.38 5 6 5 C6 6.32 6 7.64 6 9 C7.65 9 9.3 9 11 9 C11 10.65 11 12.3 11 14 C9.35 14 7.7 14 6 14 C6 18.62 6 23.24 6 28 C8.31 28 10.62 28 13 28 C13 29.65 13 31.3 13 33 C8.71 33 4.42 33 0 33 C0 22.11 0 11.22 0 0 Z " fill="#010101" transform="translate(301,109)"/>
<path d="M0 0 C3.96 0 7.92 0 12 0 C12 1.65 12 3.3 12 5 C10.02 5 8.04 5 6 5 C6 6.32 6 7.64 6 9 C7.65 9 9.3 9 11 9 C11 10.65 11 12.3 11 14 C9.35 14 7.7 14 6 14 C6.08378906 14.66386719 6.16757813 15.32773438 6.25390625 16.01171875 C7.26537786 24.78207381 7.26537786 24.78207381 6 29 C7.98 29 9.96 29 12 29 C12 30.32 12 31.64 12 33 C8.04 33 4.08 33 0 33 C0 31.68 0 30.36 0 29 C0.66 29 1.32 29 2 29 C1.34 19.43 0.68 9.86 0 0 Z " fill="#090807" transform="translate(176,109)"/>
<path d="M0 0 C2.64 0 5.28 0 8 0 C8 10.89 8 21.78 8 33 C5.36 33 2.72 33 0 33 C0.0721875 31.97261719 0.144375 30.94523437 0.21875 29.88671875 C1.14945519 17.95019794 1.14945519 17.95019794 1 6 C0.67 5.67 0.34 5.34 0 5 C-0.04063832 3.33382885 -0.042721 1.66611905 0 0 Z " fill="#000000" transform="translate(65,109)"/>
<path d="M0 0 C2.97 0 5.94 0 9 0 C9 1.65 9 3.3 9 5 C8.34 5 7.68 5 7 5 C7 12.59 7 20.18 7 28 C7.66 28 8.32 28 9 28 C9 29.65 9 31.3 9 33 C6.03 33 3.06 33 0 33 C0 31.35 0 29.7 0 28 C0.66 28 1.32 28 2 28 C2 20.41 2 12.82 2 5 C1.34 5 0.68 5 0 5 C0 3.35 0 1.7 0 0 Z " fill="#010202" transform="translate(269,109)"/>
<path d="M0 0 C2.64 0 5.28 0 8 0 C8 1.65 8 3.3 8 5 C7.34 5 6.68 5 6 5 C6.33 14.57 6.66 24.14 7 34 C4.69 33.67 2.38 33.34 0 33 C0 31.35 0 29.7 0 28 C0.66 28 1.32 28 2 28 C2 20.41 2 12.82 2 5 C1.34 5 0.68 5 0 5 C0 3.35 0 1.7 0 0 Z " fill="#050708" transform="translate(165,109)"/>
<path d="M0 0 C0 0.66 0 1.32 0 2 C0.66 2 1.32 2 2 2 C2.21665549 5.06627706 2.37459318 8.11727238 2.5 11.1875 C2.56703125 12.05181641 2.6340625 12.91613281 2.703125 13.80664062 C2.78352665 16.42974435 2.75761591 18.48227199 2 21 C-0.40430476 23.28861375 -2.96610123 24.68870243 -6 26 C-6.2112337 20.08545629 -5.81338542 14.36760404 -5.125 8.5 C-5.04652832 7.78134766 -4.96805664 7.06269531 -4.88720703 6.32226562 C-4.66475265 4.53750688 -4.34059072 2.76602596 -4 1 C-2 0 -2 0 0 0 Z " fill="#7CB6D6" transform="translate(218,112)"/>
<path d="M0 0 C1.98 0 3.96 0 6 0 C6 7.59 6 15.18 6 23 C0.71731449 20.35865724 0.71731449 20.35865724 -1 18 C-1.328125 15.29296875 -1.328125 15.29296875 -1.25 12.1875 C-1.22421875 11.12402344 -1.1984375 10.06054688 -1.171875 8.96484375 C-0.99521476 5.91745456 -0.66267238 2.9820257 0 0 Z " fill="#7AB5D6" transform="translate(161,114)"/>
<path d="M0 0 C3.76687864 1.88343932 4.79421646 2.69132469 7 6 C5.68 6 4.36 6 3 6 C3.165 6.495 3.33 6.99 3.5 7.5 C4.20688818 11.03444089 4.06005155 14.39690701 4 18 C2.02 18.99 2.02 18.99 0 20 C0 13.4 0 6.8 0 0 Z " fill="#70B0D5" transform="translate(258,116)"/>
<path d="M0 0 C2.64 0 5.28 0 8 0 C9.59138085 4.17737474 10.21278058 7.53160785 10 12 C9.01 11.67 8.02 11.34 7 11 C5.875 4.375 5.875 4.375 7 1 C5.02 1 3.04 1 1 1 C0.67 1.99 0.34 2.98 0 4 C0 2.68 0 1.36 0 0 Z " fill="#47311F" transform="translate(190,109)"/>
<path d="M0 0 C2.95409701 1.37154504 5.44008376 2.98863724 8 5 C9.32 4.34 10.64 3.68 12 3 C12 4.98 12 6.96 12 9 C11.34 8.01 10.68 7.02 10 6 C6.88214887 6.64644661 6.88214887 6.64644661 6 9 C6 7.68 6 6.36 6 5 C4.02 5 2.04 5 0 5 C0 3.35 0 1.7 0 0 Z " fill="#5D92B2" transform="translate(182,133)"/>
<path d="M0 0 C0.99 0.33 1.98 0.66 3 1 C3 5.62 3 10.24 3 15 C2.67 13.68 2.34 12.36 2 11 C1.34 11 0.68 11 0 11 C0 7.37 0 3.74 0 0 Z " fill="#76B4D7" transform="translate(135,127)"/>
<path d="M0 0 C0.66 0.33 1.32 0.66 2 1 C2 1.99 2 2.98 2 4 C2.66 4 3.32 4 4 4 C4 4.66 4 5.32 4 6 C0.6828589 7.4216319 -2.44219804 8.39009109 -6 9 C-6 7.68 -6 6.36 -6 5 C-4.02 5 -2.04 5 0 5 C0 3.35 0 1.7 0 0 Z " fill="#D5A176" transform="translate(188,109)"/>
<path d="M0 0 C0.33 0 0.66 0 1 0 C1 3.96 1 7.92 1 12 C0.01 12 -0.98 12 -2 12 C-2.05395478 10.37536158 -2.09277195 8.75021459 -2.125 7.125 C-2.14820313 6.22007813 -2.17140625 5.31515625 -2.1953125 4.3828125 C-2 2 -2 2 0 0 Z " fill="#7DBADC" transform="translate(155,113)"/>
<path d="M0 0 C0.66 0 1.32 0 2 0 C2 4.29 2 8.58 2 13 C-0.26568725 10.73431275 -0.55280451 9.56766015 -1.25 6.5 C-1.44078125 5.7059375 -1.6315625 4.911875 -1.828125 4.09375 C-1.88484375 3.4028125 -1.9415625 2.711875 -2 2 C-1.34 1.34 -0.68 0.68 0 0 Z " fill="#689EBB" transform="translate(243,113)"/>
<path d="M0 0 C0.99 0 1.98 0 3 0 C3.74926071 3.66305234 4.2380014 6.42355152 3 10 C2.34 10 1.68 10 1 10 C0.67 6.7 0.34 3.4 0 0 Z " fill="#71ACCD" transform="translate(240,132)"/>
<path d="M0 0 C0.99 0.495 0.99 0.495 2 1 C1.67 6.28 1.34 11.56 1 17 C1.99 17.33 2.98 17.66 4 18 C2.02 18.99 2.02 18.99 0 20 C0 13.4 0 6.8 0 0 Z " fill="#396078" transform="translate(258,116)"/>
<path d="M0 0 C0.99 0.495 0.99 0.495 2 1 C1.67 2.65 1.34 4.3 1 6 C1.66 6 2.32 6 3 6 C3.33 6.99 3.66 7.98 4 9 C3.01 9 2.02 9 1 9 C1 10.98 1 12.96 1 15 C0.67 15 0.34 15 0 15 C0 10.05 0 5.1 0 0 Z " fill="#1B2F3B" transform="translate(239,123)"/>
<path d="M0 0 C4 2 4 2 6 5 C4.68 5 3.36 5 2 5 C1.67 6.32 1.34 7.64 1 9 C0.67 6.03 0.34 3.06 0 0 Z " fill="#6BA7C9" transform="translate(259,117)"/>
<path d="M0 0 C0.99 0.33 1.98 0.66 3 1 C3 2.98 3 4.96 3 7 C2.01 6.67 1.02 6.34 0 6 C0 4.02 0 2.04 0 0 Z " fill="#754A22" transform="translate(197,114)"/>
<path d="M0 0 C0.99 0 1.98 0 3 0 C3 1.65 3 3.3 3 5 C2.01 5.33 1.02 5.66 0 6 C0 4.02 0 2.04 0 0 Z " fill="#7DBDE1" transform="translate(135,114)"/>
</svg>
